# xmcd
#
# Track frame offsets: 
#        150
#        13880
#        29325
#        41587
#        55345
#        71447
#        82742
#        98620
#        112270
#        123087
#        135000
#
# Disc length: 2031 seconds
#
# Revision: 0
# Processed by: cddbd v1.5.1PL2 Copyright (c) Steve Scherf et al.
# Submitted via: ExactAudioCopy v0.95b3
#
DISCID=8307ed0b
DTITLE=Brian Free and Assurance - A Glimpse Of Gold
DYEAR=1900
DGENRE=Gospel
TTITLE0=John Saw
TTITLE1=The Greatest Of All Miracles
TTITLE2=I'm Going Home
TTITLE3=Do It By The Book
TTITLE4=Just Like You
TTITLE5=I Think I'll Read It Again
TTITLE6=Once Upon A Hill
TTITLE7=Ain't God Good
TTITLE8=In My Robe Of White
TTITLE9=There's No Other Word For Grace
TTITLE10=Looking For A City
EXTD=
EXTT0=
EXTT1=
EXTT2=
EXTT3=
EXTT4=
EXTT5=
EXTT6=
EXTT7=
EXTT8=
EXTT9=
EXTT10=
PLAYORDER=
